<?xml version="1.0" encoding="UTF-8" standalone="no"?>
<svg
   xmlns:dc="http://purl.org/dc/elements/1.1/"
   xmlns:cc="http://creativecommons.org/ns#"
   xmlns:rdf="http://www.w3.org/1999/02/22-rdf-syntax-ns#"
   xmlns:svg="http://www.w3.org/2000/svg"
   xmlns="http://www.w3.org/2000/svg"
   xmlns:sodipodi="http://sodipodi.sourceforge.net/DTD/sodipodi-0.dtd"
   xmlns:inkscape="http://www.inkscape.org/namespaces/inkscape"
   data-name="Layer 1"
   viewBox="0 0 512 512"
   x="0px"
   y="0px"
   version="1.1"
   id="svg24"
   sodipodi:docname="e-wallet-512.svg"
   width="512"
   height="512"
   inkscape:version="1.0.2 (e86c870879, 2021-01-15, custom)"
   inkscape:export-filename="C:\Development\VerifiedCred\appsSrc\wallet\images\e-wallet-512.png"
   inkscape:export-xdpi="96"
   inkscape:export-ydpi="96">
  <metadata
     id="metadata30">
    <rdf:RDF>
      <cc:Work
         rdf:about="">
        <dc:format>image/svg+xml</dc:format>
        <dc:type
           rdf:resource="http://purl.org/dc/dcmitype/StillImage" />
        <dc:title>Artboard 6</dc:title>
      </cc:Work>
    </rdf:RDF>
  </metadata>
  <defs
     id="defs28" />
  <sodipodi:namedview
     pagecolor="#ffffff"
     bordercolor="#666666"
     borderopacity="1"
     objecttolerance="10"
     gridtolerance="10"
     guidetolerance="10"
     inkscape:pageopacity="0"
     inkscape:pageshadow="2"
     inkscape:window-width="3378"
     inkscape:window-height="1417"
     id="namedview26"
     showgrid="false"
     inkscape:zoom="1.4255273"
     inkscape:cx="451.73335"
     inkscape:cy="227.72797"
     inkscape:window-x="1494"
     inkscape:window-y="690"
     inkscape:window-maximized="1"
     inkscape:current-layer="layer2"
     inkscape:document-rotation="0" />
  <title
     id="title2">Artboard 6</title>
  <g
     inkscape:groupmode="layer"
     id="layer1"
     inkscape:label="Bottom">
    <rect
       style="fill:#24387e;fill-opacity:1;stroke:#24387e;stroke-width:4.92794;stroke-miterlimit:4;stroke-dasharray:none;stroke-opacity:1"
       id="rect855"
       width="507.07205"
       height="507.07205"
       x="2.727489"
       y="2.9329669" />
  </g>
  <g
     inkscape:groupmode="layer"
     id="layer2"
     inkscape:label="Top">
    <path
       d="m 47.086631,254.35237 a 20.777073,22.23045 0 0 0 7.005111,0.91776 17.298342,18.508378 0 0 0 6.099696,-0.66282 c 5.051324,-12.4409 7.195743,-39.41317 6.385614,-64.14199 a 39.171456,41.911536 0 0 0 5.623153,2.0395 53.229337,56.952781 0 0 0 13.200125,1.42764 h 10.531492 l 21.158298,0.15295 c 28.59232,0.30592 58.4236,0.45889 88.11196,0.45889 59.37669,0 118.75337,-0.56086 170.64839,-1.73357 l 19.06153,-0.45887 a 34.310763,36.710834 0 0 1 6.90979,0 17.63192,18.865291 0 0 1 5.28961,1.9885 18.346728,19.630099 0 0 1 7.71989,8.36191 18.013151,19.273188 0 0 1 1.76321,5.50662 23.826919,25.493635 0 0 1 0.33357,3.00825 v 4.28293 c 0.81013,21.82255 1.71555,40.78982 2.76392,56.34093 -25.97132,1.07072 -48.27334,2.4474 -64.61858,4.12997 -1.62023,0 -2.85924,3.56912 -2.76396,7.49515 0.0953,3.92601 1.28669,6.3734 2.76396,6.52635 22.8738,2.34541 57.18459,4.12997 97.40443,5.09872 3.3834,0 2.85921,0 3.62168,0.45891 a 3.3834225,3.620096 0 0 1 1.90617,2.8043 v 5.86353 l -0.52421,35.02827 v 17.99852 10.19744 c 0,0 0,0 0,0.30593 a 5.3848838,5.7615615 0 0 1 0,0.56086 2.4779996,2.6513381 0 0 1 -0.90541,0.86678 2.2397305,2.3964018 0 0 1 -0.5242,0 h -18.72796 c -22.96917,0 -45.89064,0 -68.14499,0.45889 h -8.29176 -4.14589 c -1.42962,0 -2.7639,0 -3.66933,0 a 36.979378,39.566122 0 0 1 -12.00878,-1.2237 38.408994,41.09574 0 0 1 -18.58499,-14.88827 36.931726,39.515134 0 0 1 -0.47654,-43.23723 41.268223,44.154977 0 0 1 28.59231,-20.08899 c 1.33429,0 2.43033,-3.62009 2.33503,-7.49513 -0.0953,-3.87502 -1.38197,-6.06747 -3.04985,-6.11847 a 50.703684,54.250454 0 0 0 -21.63484,4.48687 53.324647,57.054756 0 0 0 -21.25362,17.6926 55.754992,59.655106 0 0 0 -7.67225,14.17445 58.661874,62.765331 0 0 0 -3.81231,17.02976 56.08857,60.012019 0 0 0 8.00584,36.71085 60.710989,64.957783 0 0 0 48.84519,30.59237 c 1.85851,0 3.19278,0 4.76539,0 h 4.14586 8.29177 c 16.34527,0 33.35769,0.35691 49.98888,0.4079 -1.66788,11.93102 -2.95453,27.68606 -3.81229,45.63358 l -0.38125,8.31095 v 4.07899 a 17.393652,18.610354 0 0 1 -0.38124,2.49836 16.678844,17.845545 0 0 1 -4.38415,8.7698 16.249959,17.386659 0 0 1 -8.14879,5.09873 20.872381,22.332425 0 0 1 -2.33503,0.4589 c -0.90544,0 -1.28667,0 -3.00219,0 h -9.34016 c -46.55779,0 -93.06794,2.44738 -116.27536,7.18919 -0.81012,0 -1.42962,3.46713 -1.38197,7.34215 0.0477,3.87506 0.6195,6.16949 1.38197,6.32245 23.15975,4.74181 69.71757,7.18918 116.27536,7.18918 h 8.72066 c 1.14369,0 3.66934,0 5.6708,-0.25483 a 44.699302,47.82606 0 0 0 6.19498,-1.27469 40.83934,43.696091 0 0 0 20.63411,-13.86854 40.83934,43.696091 0 0 0 9.81671,-28.96077 c 0,-1.73357 0,-2.95727 0,-4.43589 l -0.38124,-8.31094 c -0.90541,-17.89651 -2.19208,-33.6516 -3.81231,-45.58259 h 21.34893 2.00145 a 28.592304,30.592362 0 0 0 3.95528,-0.66284 28.163416,30.133478 0 0 0 18.44202,-15.2962 29.259458,31.306185 0 0 0 2.71627,-7.954 28.830573,30.847298 0 0 0 0.5242,-4.18097 v -2.09054 -10.19745 -17.99854 l -0.5242,-35.02826 v -4.28293 -1.17271 -1.88652 a 30.021918,32.121979 0 0 0 -0.52418,-3.77306 27.115035,29.011757 0 0 0 -6.38561,-13.2057 26.638495,28.501884 0 0 0 -11.34163,-7.95404 30.260188,32.376917 0 0 0 -11.38926,-1.42763 l -19.3951,0.61184 c 1.04837,-15.29617 1.95381,-34.26344 2.71626,-56.08599 v -4.28292 a 43.889186,46.959277 0 0 0 0,-5.71058 37.265301,39.872045 0 0 0 -3.38342,-11.2172 38.933187,41.6566 0 0 0 -26.63849,-24.066 53.610567,57.360679 0 0 0 -11.53224,-1.42764 h -1.38196 c 0,-1.27466 0.42888,-2.65133 0.6195,-4.028 0.42889,-2.90627 0.81013,-6.01649 1.14367,-9.27968 l 0.47656,-5.09871 v -2.60037 a 27.925149,29.878541 0 0 0 0,-3.31415 35.311494,37.781569 0 0 0 -13.24777,-29.31771 36.50284,39.056248 0 0 0 -14.82034,-7.5461 c -1.42961,0 -2.85922,-0.56086 -4.28883,-0.66284 -1.42963,-0.10194 -3.19282,0 -3.90764,0 h -5.67079 a 386.23436,413.25183 0 0 0 -69.57462,5.40466 C 269.10586,94.252332 251.99813,75.336055 234.55684,56.419778 a 13.104806,14.0215 0 0 0 -18.53736,0 c -17.91783,19.477135 -35.69271,39.005263 -51.27553,57.105752 -14.29614,-1.12172 -32.26165,-2.14147 -52.65747,-3.00825 l -16.488243,-0.66283 -8.625345,-0.30593 h -4.384153 a 43.364993,46.398416 0 0 0 -5.813755,0.25494 38.694918,41.401662 0 0 0 -22.492614,11.37017 39.552685,42.319436 0 0 0 -11.62754,25.13673 40.029224,42.829306 0 0 0 0.90542,14.99026 c -4.90834,28.14495 -3.669337,75.30817 3.526381,93.05175 z M 354.12032,134.53228 h 7.434 c 0.42889,0 0.85776,0 1.33431,0 a 12.914191,13.81755 0 0 1 4.76537,2.03949 13.53369,14.480385 0 0 1 5.90907,9.2287 8.9589217,9.5856069 0 0 1 0.28595,1.93751 v 2.60036 l 0.47654,5.09873 c 0.33355,3.26317 0.7148,6.37341 1.14368,9.27968 0,1.2237 0.38123,2.44739 0.57183,3.5691 h -0.33355 c -14.77272,-0.3569 -30.1649,-0.61184 -45.98596,-0.86678 -7.3387,-10.19745 -17.06009,-22.07749 -28.59232,-35.69108 a 497.12485,531.89922 0 0 0 52.99108,2.80429 z M 225.45496,86.349307 c 29.25945,31.255203 58.42359,60.521893 80.96385,80.763853 -32.73815,-0.40791 -66.71535,-0.56087 -100.97845,-0.56087 -20.34821,0 -40.64873,0 -60.66335,0 22.20668,-20.03798 51.32317,-49.35568 80.53499,-80.253973 z M 69.436285,137.59152 a 17.584266,18.814303 0 0 1 9.530761,-5.71057 20.34819,21.771564 0 0 1 3.049862,-0.35691 h 4.384152 l 8.625346,-0.30592 16.488224,-0.66284 c 14.72502,-0.61184 28.11574,-1.32567 39.88627,-2.09048 -12.48531,14.68434 -23.15977,27.89004 -31.11795,38.59737 h -3.19283 l -21.396569,0.25495 H 85.162058 a 30.784379,32.937777 0 0 1 -7.481657,-0.35692 16.106998,17.233697 0 0 1 -9.530762,-6.67933 16.964766,18.151468 0 0 1 -3.19282,-11.72707 17.488959,18.712328 0 0 1 4.479466,-10.96227 z"
       id="path4"
       style="fill:#ffffff;fill-opacity:1;stroke:#ffffff;stroke-width:4.92794;stroke-miterlimit:4;stroke-dasharray:none;stroke-opacity:1" />
    <ellipse
       cx="355.07339"
       cy="333.63757"
       id="circle6"
       rx="14.200844"
       ry="15.194207"
       style="fill:#ffffff;fill-opacity:1;stroke:#ffffff;stroke-width:4.92794;stroke-miterlimit:4;stroke-dasharray:none;stroke-opacity:1" />
    <path
       d="m 54.187055,425.61866 c 4.431823,2.49836 10.483848,5.09872 16.774148,8.56584 a 81.011527,86.678361 0 0 1 18.346735,14.37841 81.011527,86.678361 0 0 1 13.486032,19.63011 c 3.38342,6.73031 5.62315,13.20569 7.91053,17.89653 a 24.541726,26.258444 0 0 0 7.05277,0.56083 15.678113,16.774812 0 0 0 6.05205,-0.7138 42.888455,45.888543 0 0 0 0.66715,-25.95251 62.235913,66.589375 0 0 0 -45.795339,-48.8458 42.554877,45.531632 0 0 0 -24.20816,0.81579 18.584997,19.885035 0 0 0 -0.619502,7.29117 19.823997,21.210705 0 0 0 0.333586,6.37343 z"
       id="path8"
       style="fill:#ffffff;fill-opacity:1;stroke:#ffffff;stroke-width:4.92794;stroke-miterlimit:4;stroke-dasharray:none;stroke-opacity:1" />
    <path
       d="m 54.663599,367.44216 a 230.50161,246.62544 0 0 1 34.310753,11.88005 130.52386,139.65414 0 0 1 38.742578,28.09398 130.38091,139.50118 0 0 1 26.16195,41.60561 228.73843,244.7389 0 0 1 10.86507,36.55787 c 0,0.66285 3.38344,1.1727 7.05278,1.12171 3.66934,-0.0509 5.90908,-0.56085 6.0044,-1.2237 a 90.780563,97.13075 0 0 0 -2.47801,-44.71583 117.08548,125.27572 0 0 0 -29.30713,-53.12872 116.99017,125.17375 0 0 0 -49.702939,-31.25519 90.542292,96.875813 0 0 0 -41.79241,-2.54937 c -0.667172,0 -1.191359,3.41615 -1.143688,7.29118 0.04776,3.87503 0.762459,6.32241 1.286646,6.32241 z"
       id="path10"
       style="fill:#ffffff;fill-opacity:1;stroke:#ffffff;stroke-width:4.92794;stroke-miterlimit:4;stroke-dasharray:none;stroke-opacity:1" />
    <path
       d="m 184.71092,346.4354 a 172.07801,184.11505 0 0 0 -70.09879,-44.91978 142.48498,152.45195 0 0 0 -59.471987,-5.91453 c -0.953088,0 -1.715546,3.41613 -1.620232,7.2402 0.09524,3.82403 0.714814,6.22044 1.524918,6.37339 a 260.047,278.23754 0 0 1 51.895031,15.29618 184.75393,197.67766 0 0 1 59.23372,41.70762 184.61097,197.52469 0 0 1 38.98083,63.2752 258.76034,276.86088 0 0 1 14.29617,55.47414 c 0,0.96876 3.43106,1.73356 7.10043,1.68256 3.66932,-0.0509 5.90906,-0.81576 6.00437,-1.78452 a 142.96152,152.96181 0 0 0 -5.86142,-63.53014 172.12566,184.16603 0 0 0 -41.98304,-74.90032 z"
       id="path12"
       style="fill:#ffffff;fill-opacity:1;stroke:#ffffff;stroke-width:4.92794;stroke-miterlimit:4;stroke-dasharray:none;stroke-opacity:1" />
    <path
       d="m 451.52477,38.676212 c -12.96185,0.407897 -33.07178,21.82255 -33.3577,35.691085 a 43.698571,46.755328 0 0 0 4.76538,5.506625 36.216916,38.750325 0 0 0 4.47948,4.384906 c 12.86653,-0.458886 32.92877,-22.026503 33.35769,-35.691093 a 42.888455,45.888543 0 0 0 -4.76539,-5.404646 35.120881,37.577618 0 0 0 -4.47946,-4.486877 z"
       id="path14"
       style="fill:#ffffff;fill-opacity:1;stroke:#ffffff;stroke-width:4.92794;stroke-miterlimit:4;stroke-dasharray:none;stroke-opacity:1" />
    <path
       d="m 442.80411,136.9287 a 37.455918,40.075994 0 0 0 0.28591,6.52636 c 9.1019,9.43264 36.59816,9.33066 45.70005,0 a 44.318069,47.418163 0 0 0 0.28591,-7.34217 36.26457,38.801312 0 0 0 -0.28591,-6.52637 c -9.10189,-9.53462 -36.59815,-9.5856 -45.70005,0 a 45.175839,48.335933 0 0 0 -0.28591,7.34218 z"
       id="path16"
       style="fill:#ffffff;fill-opacity:1;stroke:#ffffff;stroke-width:4.92794;stroke-miterlimit:4;stroke-dasharray:none;stroke-opacity:1" />
    <path
       d="m 371.22805,59.326055 a 37.455918,40.075994 0 0 0 6.0997,-0.305922 c 8.81594,-9.738573 8.72064,-39.15823 0,-48.896795 a 44.318069,47.418163 0 0 0 -6.86216,-0.3059286 36.312225,38.852301 0 0 0 -5.9091,0.3059286 c -9.19717,9.738565 -9.19717,39.158222 -0.28591,48.896795 a 45.175839,48.335933 0 0 0 6.95747,0.305922 z"
       id="path18"
       style="fill:#ffffff;fill-opacity:1;stroke:#ffffff;stroke-width:4.92794;stroke-miterlimit:4;stroke-dasharray:none;stroke-opacity:1" />
  </g>
</svg>
