<?xml version="1.0" encoding="UTF-8" standalone="no"?>
<svg
   xmlns:dc="http://purl.org/dc/elements/1.1/"
   xmlns:cc="http://creativecommons.org/ns#"
   xmlns:rdf="http://www.w3.org/1999/02/22-rdf-syntax-ns#"
   xmlns:svg="http://www.w3.org/2000/svg"
   xmlns="http://www.w3.org/2000/svg"
   xmlns:sodipodi="http://sodipodi.sourceforge.net/DTD/sodipodi-0.dtd"
   xmlns:inkscape="http://www.inkscape.org/namespaces/inkscape"
   data-name="Layer 1"
   viewBox="0 0 192 192"
   x="0px"
   y="0px"
   version="1.1"
   id="svg24"
   sodipodi:docname="e-wallet.svg"
   width="192"
   height="192"
   inkscape:version="1.0.2 (e86c870879, 2021-01-15, custom)"
   inkscape:export-filename="C:\Development\VerifiedCred\appsSrc\wallet\images\e-wallet-192.png"
   inkscape:export-xdpi="96"
   inkscape:export-ydpi="96">
  <metadata
     id="metadata30">
    <rdf:RDF>
      <cc:Work
         rdf:about="">
        <dc:format>image/svg+xml</dc:format>
        <dc:type
           rdf:resource="http://purl.org/dc/dcmitype/StillImage" />
        <dc:title>Artboard 6</dc:title>
      </cc:Work>
    </rdf:RDF>
  </metadata>
  <defs
     id="defs28" />
  <sodipodi:namedview
     pagecolor="#ffffff"
     bordercolor="#666666"
     borderopacity="1"
     objecttolerance="10"
     gridtolerance="10"
     guidetolerance="10"
     inkscape:pageopacity="0"
     inkscape:pageshadow="2"
     inkscape:window-width="3378"
     inkscape:window-height="1417"
     id="namedview26"
     showgrid="false"
     inkscape:zoom="4.032"
     inkscape:cx="120.92094"
     inkscape:cy="70.792837"
     inkscape:window-x="1494"
     inkscape:window-y="690"
     inkscape:window-maximized="1"
     inkscape:current-layer="layer2" />
  <title
     id="title2">Artboard 6</title>
  <g
     inkscape:groupmode="layer"
     id="layer1"
     inkscape:label="Bottom">
    <rect
       style="fill:#24387e;fill-opacity:1;stroke:#24387e;stroke-width:1.868;stroke-miterlimit:4;stroke-dasharray:none;stroke-opacity:1"
       id="rect855"
       width="192.2123"
       height="192.2123"
       x="0.4960168"
       y="1.8072525e-06" />
  </g>
  <g
     inkscape:groupmode="layer"
     id="layer2"
     inkscape:label="Top">
    <path
       d="m 17.310932,95.303816 a 7.8758216,8.426743 0 0 0 2.65538,0.347893 6.5571634,7.0158434 0 0 0 2.31217,-0.251256 c 1.91477,-4.715884 2.72764,-14.940074 2.42055,-24.313859 a 14.848453,15.887116 0 0 0 2.13153,0.773095 20.177277,21.588697 0 0 0 5.00368,0.541167 h 3.9921 l 8.02033,0.05798 c 10.83829,0.115965 22.14623,0.173947 33.39999,0.173947 22.50751,0 45.015018,-0.212601 64.686508,-0.657131 l 7.22552,-0.173945 a 13.005944,13.915722 0 0 1 2.61925,0 6.6836101,7.1511351 0 0 1 2.00509,0.753768 6.9545673,7.441046 0 0 1 2.92633,3.169693 6.8281206,7.3057543 0 0 1 0.66836,2.087358 9.0319055,9.6636961 0 0 1 0.12645,1.140316 v 1.623501 c 0.30709,8.272124 0.6503,15.461914 1.0477,21.356767 -9.84477,0.40587 -18.29864,0.92772 -24.49452,1.56552 -0.61417,0 -1.08383,1.35292 -1.04771,2.84113 0.0361,1.48821 0.48773,2.41592 1.04771,2.4739 8.67062,0.88906 21.67657,1.56552 36.92242,1.93274 1.28253,0 1.08383,0 1.37285,0.17395 a 1.2825306,1.3722448 0 0 1 0.72256,1.06301 v 2.22265 l -0.19871,13.27792 v 6.82258 3.86547 c 0,0 0,0 0,0.11597 a 2.0412107,2.1839953 0 0 1 0,0.2126 0.93931818,1.0050244 0 0 1 -0.34321,0.32856 0.84899912,0.90838743 0 0 1 -0.1987,0 h -7.09908 c -8.70676,0 -17.39545,0 -25.83125,0.17395 h -3.1431 -1.57155 c -0.54192,0 -1.0477,0 -1.39091,0 a 14.017517,14.998056 0 0 1 -4.55209,-0.46386 14.559432,15.577878 0 0 1 -7.04488,-5.64359 13.999454,14.978729 0 0 1 -0.18064,-16.38964 15.64326,16.737522 0 0 1 10.83829,-7.615 c 0.50578,0 0.92125,-1.37224 0.88512,-2.84112 -0.0361,-1.46888 -0.52385,-2.29996 -1.15608,-2.31929 a 19.219895,20.564345 0 0 0 -8.20097,1.70081 20.213405,21.627352 0 0 0 -8.05646,6.70661 21.134659,22.613049 0 0 0 -2.90827,5.37301 22.236551,23.79202 0 0 0 -1.44511,6.45535 21.261106,22.748341 0 0 0 3.03472,13.91573 23.013295,24.623098 0 0 0 18.51541,11.59644 c 0.70449,0 1.21027,0 1.80638,0 h 1.57155 3.1431 c 6.19589,0 12.64467,0.13529 18.94894,0.15462 -0.63223,4.52261 -1.11996,10.49477 -1.4451,17.29801 l -0.14452,3.15037 v 1.54619 a 6.593291,7.0544982 0 0 1 -0.14451,0.94704 6.3223339,6.7645873 0 0 1 -1.66187,3.32431 6.1597596,6.5906407 0 0 1 -3.08891,1.93274 7.9119493,8.4653978 0 0 1 -0.88512,0.17395 c -0.34322,0 -0.48773,0 -1.13802,0 h -3.54051 c -17.64834,0 -35.27862,0.92771 -44.0757,2.72516 -0.30708,0 -0.54191,1.31426 -0.52385,2.78314 0.0181,1.46889 0.23483,2.33862 0.52385,2.3966 8.77901,1.79745 26.42736,2.72516 44.0757,2.72516 h 3.30568 c 0.43353,0 1.39091,0 2.14959,-0.0966 a 16.943855,18.129094 0 0 0 2.34829,-0.48319 15.480686,16.563575 0 0 0 7.82163,-5.25705 15.480686,16.563575 0 0 0 3.72115,-10.97796 c 0,-0.65713 0,-1.12099 0,-1.68148 l -0.14451,-3.15037 c -0.34321,-6.78391 -0.83094,-12.75608 -1.44511,-17.27868 h 8.09259 0.75868 a 10.838287,11.596435 0 0 0 1.4993,-0.25126 10.675712,11.422489 0 0 0 6.99069,-5.79822 11.09118,11.867019 0 0 0 1.02964,-3.01507 10.928606,11.693072 0 0 0 0.1987,-1.58485 v -0.79245 -3.86548 -6.82258 l -0.1987,-13.27792 v -1.6235 -0.44453 -0.71511 a 11.380201,12.176257 0 0 0 -0.1987,-1.43023 10.278309,10.997286 0 0 0 -2.42055,-5.00579 10.09767,10.804012 0 0 0 -4.29919,-3.01508 11.47052,12.272894 0 0 0 -4.31725,-0.54117 l -7.35197,0.23193 c 0.3974,-5.798213 0.74062,-12.988003 1.02964,-21.260126 v -1.623501 a 16.63677,17.800528 0 0 0 0,-2.164668 14.1259,15.114021 0 0 0 -1.28253,-4.252027 14.758134,15.790479 0 0 0 -10.09767,-9.122529 20.321787,21.743316 0 0 0 -4.37145,-0.541167 h -0.52385 c 0,-0.483184 0.16258,-1.005024 0.23483,-1.526864 0.16258,-1.101661 0.30709,-2.280632 0.43353,-3.517585 l 0.18064,-1.932739 v -0.985697 a 10.585393,11.325852 0 0 0 0,-1.256281 13.385284,14.321598 0 0 0 -5.02174,-11.11325 13.836879,14.804782 0 0 0 -5.61784,-2.860454 c -0.54192,0 -1.08383,-0.212602 -1.62574,-0.251257 -0.54192,-0.03865 -1.21028,0 -1.48124,0 h -2.14959 A 146.40719,156.64851 0 0 0 107.3229,41.399719 C 101.47023,34.615805 94.985322,27.445342 88.373972,20.27488 a 4.967548,5.3150329 0 0 0 -7.02683,0 c -6.79199,7.383063 -13.52979,14.785455 -19.43666,21.646679 -5.41914,-0.425203 -12.2292,-0.811751 -19.96051,-1.140317 l -6.25008,-0.251256 -3.26955,-0.115964 h -1.66187 a 16.438068,17.587927 0 0 0 -2.20378,0.09664 14.667815,15.693842 0 0 0 -8.52612,4.310008 14.992963,16.041736 0 0 0 -4.40757,9.528405 15.173601,16.235009 0 0 0 0.34321,5.682253 c -1.86057,10.668718 -1.39091,28.546556 1.33672,35.272488 z M 133.69607,49.884444 h 2.81795 c 0.16258,0 0.32515,0 0.50579,0 a 4.8952928,5.2377233 0 0 1 1.80638,0.773096 5.1301223,5.4889794 0 0 1 2.23991,3.498258 3.3959965,3.6335497 0 0 1 0.10839,0.734441 v 0.985697 l 0.18064,1.932739 c 0.12644,1.236953 0.27095,2.415924 0.43353,3.517586 0,0.463857 0.14451,0.927714 0.21676,1.352917 h -0.12644 c -5.59979,-0.135292 -11.4344,-0.231929 -17.43158,-0.328566 -2.78183,-3.865478 -6.46685,-8.368761 -10.83829,-13.529174 a 188.44168,201.62336 0 0 0 20.08696,1.063006 z M 84.923782,31.620059 c 11.09118,11.847691 22.146228,22.941614 30.690408,30.614589 -12.40983,-0.154619 -25.289328,-0.212601 -38.277208,-0.212601 -7.71325,0 -15.40843,0 -22.99523,0 8.41773,-7.595666 19.45472,-18.708916 30.52784,-30.421316 z m -59.14092,19.424029 a 6.6655463,7.1318077 0 0 1 3.61276,-2.164668 7.7132473,8.2527965 0 0 1 1.15609,-0.135292 h 1.66187 l 3.26955,-0.115964 6.25008,-0.251256 c 5.58171,-0.231929 10.65764,-0.502513 15.11941,-0.792423 -4.73272,5.566289 -8.77902,10.572083 -11.79567,14.630836 h -1.21028 l -8.11065,0.09664 h -3.9921 a 11.669222,12.485495 0 0 1 -2.83602,-0.135292 6.1055681,6.5326586 0 0 1 -3.61276,-2.531889 6.4307167,6.8805516 0 0 1 -1.21028,-4.4453 6.6294187,7.0931529 0 0 1 1.698,-4.155389 z"
       id="path4"
       style="fill:#ffffff;fill-opacity:1;stroke:#ffffff;stroke-width:1.868;stroke-miterlimit:4;stroke-dasharray:none;stroke-opacity:1" />
    <ellipse
       cx="134.05734"
       cy="125.35793"
       id="circle6"
       rx="5.3830156"
       ry="5.759563"
       style="fill:#ffffff;fill-opacity:1;stroke:#ffffff;stroke-width:1.868;stroke-miterlimit:4;stroke-dasharray:none;stroke-opacity:1" />
    <path
       d="m 20.002442,160.22454 c 1.67994,0.94704 3.97404,1.93274 6.35846,3.247 a 30.708479,32.856567 0 0 1 6.95457,5.45032 30.708479,32.856567 0 0 1 5.11206,7.44105 c 1.28253,2.55121 2.13153,5.00579 2.99859,6.78391 a 9.3028627,9.953607 0 0 0 2.67344,0.2126 5.9429938,6.358712 0 0 0 2.29411,-0.27058 16.25743,17.394653 0 0 0 0.25289,-9.83764 23.591337,25.241574 0 0 0 -17.35932,-18.51564 16.130983,17.259361 0 0 0 -9.17642,0.30924 7.0448863,7.537683 0 0 0 -0.23483,2.76381 7.5145454,8.0401952 0 0 0 0.12645,2.41593 z"
       id="path8"
       style="fill:#ffffff;fill-opacity:1;stroke:#ffffff;stroke-width:1.868;stroke-miterlimit:4;stroke-dasharray:none;stroke-opacity:1" />
    <path
       d="m 20.183082,138.17198 a 87.374654,93.486596 0 0 1 13.00594,4.50329 49.476779,52.937727 0 0 1 14.68588,10.64939 49.422587,52.879745 0 0 1 9.91703,15.77115 86.706293,92.771483 0 0 1 4.11855,13.85774 c 0,0.25126 1.28253,0.44453 2.67345,0.4252 1.39091,-0.0193 2.23991,-0.2126 2.27604,-0.46386 a 34.41156,36.818682 0 0 0 -0.93932,-16.95012 44.382784,47.487403 0 0 0 -11.10925,-20.13914 44.346656,47.448748 0 0 0 -18.84055,-11.84769 34.321241,36.722045 0 0 0 -15.84196,-0.96637 c -0.2529,0 -0.4516,1.29494 -0.43353,2.76382 0.0181,1.46888 0.28902,2.39659 0.48772,2.39659 z"
       id="path10"
       style="fill:#ffffff;fill-opacity:1;stroke:#ffffff;stroke-width:1.868;stroke-miterlimit:4;stroke-dasharray:none;stroke-opacity:1" />
    <path
       d="m 69.479222,130.20909 a 65.228422,69.791213 0 0 0 -26.57187,-17.02743 54.010795,57.788903 0 0 0 -22.54363,-2.24198 c -0.36128,0 -0.6503,1.29493 -0.61417,2.74449 0.0361,1.44955 0.27096,2.35794 0.57804,2.41592 a 98.574217,105.46958 0 0 1 19.67149,5.79822 70.033396,74.9323 0 0 1 22.45332,15.80982 69.979204,74.874317 0 0 1 14.77619,23.98529 98.086494,104.94774 0 0 1 5.41915,21.0282 c 0,0.36722 1.30059,0.65713 2.69151,0.6378 1.39091,-0.0193 2.23991,-0.30923 2.27604,-0.67645 a 54.191433,57.982177 0 0 0 -2.22185,-24.08193 65.246486,69.810541 0 0 0 -15.91422,-28.39195 z"
       id="path12"
       style="fill:#ffffff;fill-opacity:1;stroke:#ffffff;stroke-width:1.868;stroke-miterlimit:4;stroke-dasharray:none;stroke-opacity:1" />
    <path
       d="m 170.6185,13.548947 c -4.91336,0.154619 -12.53629,8.272125 -12.64467,13.529175 a 16.564515,17.723219 0 0 0 1.80638,2.087358 13.728496,14.688818 0 0 0 1.698,1.662156 c 4.87723,-0.173947 12.48209,-8.349434 12.64467,-13.529175 a 16.25743,17.394653 0 0 0 -1.80638,-2.048703 13.313029,14.244288 0 0 0 -1.698,-1.700811 z"
       id="path14"
       style="fill:#ffffff;fill-opacity:1;stroke:#ffffff;stroke-width:1.868;stroke-miterlimit:4;stroke-dasharray:none;stroke-opacity:1" />
    <path
       d="m 167.31282,50.792832 a 14.198156,15.19133 0 0 0 0.10838,2.473906 c 3.45019,3.575568 13.87301,3.536913 17.3232,0 a 16.799344,17.974475 0 0 0 0.10838,-2.783145 13.74656,14.708145 0 0 0 -0.10838,-2.473906 c -3.45019,-3.614222 -13.87301,-3.63355 -17.3232,0 a 17.124493,18.322368 0 0 0 -0.10838,2.783145 z"
       id="path16"
       style="fill:#ffffff;fill-opacity:1;stroke:#ffffff;stroke-width:1.868;stroke-miterlimit:4;stroke-dasharray:none;stroke-opacity:1" />
    <path
       d="m 140.18098,21.376542 a 14.198156,15.19133 0 0 0 2.31217,-0.115964 c 3.3418,-3.691533 3.30567,-14.8434388 0,-18.5349708 a 16.799344,17.974475 0 0 0 -2.60119,-0.115964 13.764624,14.727473 0 0 0 -2.23992,0.115964 c -3.48631,3.691532 -3.48631,14.8434378 -0.10838,18.5349708 a 17.124493,18.322368 0 0 0 2.63732,0.115964 z"
       id="path18"
       style="fill:#ffffff;fill-opacity:1;stroke:#ffffff;stroke-width:1.868;stroke-miterlimit:4;stroke-dasharray:none;stroke-opacity:1" />
  </g>
</svg>
